<svg xmlns="http://www.w3.org/2000/svg" width="297" height="265" viewBox="0 0 297 265" version="1.1"><path d="M 185.700 88.339 C 185.418 89.075, 185.140 96.838, 185.083 105.589 C 185.025 114.340, 184.709 135.731, 184.380 153.124 C 183.924 177.237, 184.068 184.924, 184.986 185.491 C 185.753 185.966, 192.222 180.306, 202.845 169.868 C 212.005 160.865, 224.366 149.053, 230.313 143.618 L 241.126 133.736 240.906 110.368 L 240.686 87 213.450 87 C 191.620 87, 186.112 87.266, 185.700 88.339 M 118.975 158.750 C 117.198 160.813, 107.580 171.050, 97.602 181.500 C 87.625 191.950, 76.883 203.241, 73.731 206.590 L 68 212.681 68 231.840 L 68 251 96 251 L 124 251 124 203 C 124 175.365, 123.620 155, 123.104 155 C 122.611 155, 120.753 156.688, 118.975 158.750" stroke="none" fill="#081ed0" fill-rule="evenodd"/><path d="M 131.807 86.748 L 115.113 87.048 91.540 110.274 L 67.967 133.500 67.927 153 C 67.905 163.725, 67.661 190.583, 67.385 212.684 C 66.887 252.599, 66.897 252.875, 68.961 253.979 C 70.388 254.743, 90.917 255.279, 134.475 255.691 L 197.910 256.290 201.205 252.861 C 218.030 235.350, 239.641 212.519, 240.665 211.171 C 241.638 209.893, 241.944 201.002, 241.968 173.332 C 241.986 153.439, 241.730 136.460, 241.400 135.601 C 240.695 133.764, 229.065 144.100, 202.845 169.868 C 191.780 180.741, 185.769 185.975, 184.937 185.461 C 184.028 184.899, 183.842 185.289, 184.259 186.881 C 184.948 189.515, 181.525 193.061, 175.434 196.023 C 171.742 197.818, 169.242 198, 148.242 198 L 125.115 198 124.732 193.750 C 124.522 191.412, 124.271 203.338, 124.175 220.250 L 124 251 96 251 L 68 251 68 231.840 L 68 212.681 73.731 206.590 C 76.883 203.241, 87.625 191.950, 97.602 181.500 C 107.580 171.050, 117.213 160.796, 119.008 158.712 C 120.804 156.629, 122.704 155.068, 123.229 155.243 C 123.755 155.418, 125.764 154.072, 127.695 152.252 C 134.348 145.977, 136.087 145.628, 161 145.561 L 183.500 145.500 184.224 143.025 C 184.622 141.663, 184.986 129.046, 185.034 114.987 C 185.081 100.928, 185.452 88.887, 185.859 88.229 C 186.396 87.359, 194.093 86.956, 214.049 86.750 C 229.147 86.594, 220.575 86.462, 195 86.457 C 169.425 86.452, 140.988 86.583, 131.807 86.748 M 240.158 91 C 240.158 92.375, 240.385 92.938, 240.662 92.250 C 240.940 91.563, 240.940 90.438, 240.662 89.750 C 240.385 89.063, 240.158 89.625, 240.158 91 M 184.158 154 C 184.158 155.375, 184.385 155.938, 184.662 155.250 C 184.940 154.563, 184.940 153.438, 184.662 152.750 C 184.385 152.063, 184.158 152.625, 184.158 154" stroke="none" fill="#078ef8" fill-rule="evenodd"/></svg>